<svg width="52" height="50" viewBox="0 0 52 50" fill="none" xmlns="http://www.w3.org/2000/svg">
<g filter="url(#filter0_d_18901_364)">
<path d="M34 26.07L37.9 30C37.9994 30.1004 38.1178 30.1801 38.2483 30.2345C38.3787 30.2889 38.5186 30.3169 38.66 30.3169C38.8013 30.3169 38.9412 30.2889 39.0716 30.2345C39.2021 30.1801 39.3205 30.1004 39.42 30L42.18 27.24V13C42.1813 12.7874 42.1193 12.5792 42.0018 12.402C41.8843 12.2248 41.7167 12.0866 41.5204 12.005C41.324 11.9235 41.1078 11.9023 40.8993 11.9442C40.6909 11.986 40.4996 12.089 40.35 12.24L29.47 23.15C29.3705 23.2504 29.2521 23.3301 29.1216 23.3845C28.9912 23.4389 28.8513 23.4669 28.71 23.4669C28.5686 23.4669 28.4287 23.4389 28.2983 23.3845C28.1678 23.3301 28.0494 23.2504 27.95 23.15L21.62 16.82C21.5205 16.7197 21.4021 16.64 21.2716 16.5856C21.1412 16.5312 21.0013 16.5032 20.86 16.5032C20.7186 16.5032 20.5787 16.5312 20.4483 16.5856C20.3178 16.64 20.1994 16.7197 20.1 16.82L4.35995 32.69C4.21236 32.8402 4.11236 33.0306 4.07247 33.2374C4.03259 33.4441 4.05459 33.6581 4.13573 33.8524C4.21687 34.0467 4.35353 34.2127 4.52861 34.3297C4.70369 34.4467 4.90939 34.5094 5.11995 34.51H24.12L32.49 26.07C32.6905 25.8704 32.962 25.7583 33.245 25.7583C33.528 25.7583 33.7994 25.8704 34 26.07Z" fill="#6F00FF"/>
<path d="M46.12 23.26L42.18 27.21V33.43C42.18 33.7138 42.0672 33.9859 41.8666 34.1866C41.6659 34.3873 41.3938 34.5 41.11 34.5H24.11L22.42 36.21C22.269 36.3597 22.1659 36.5509 22.1241 36.7594C22.0822 36.9678 22.1034 37.184 22.185 37.3804C22.2665 37.5768 22.4047 37.7444 22.5819 37.8619C22.7592 37.9793 22.9674 38.0413 23.18 38.04H46.88C47.0222 38.0467 47.1642 38.025 47.2979 37.9761C47.4316 37.9272 47.5541 37.8521 47.6584 37.7553C47.7627 37.6584 47.8467 37.5417 47.9053 37.412C47.964 37.2824 47.9961 37.1423 48 37V24C48.0087 23.7782 47.9481 23.5591 47.8268 23.3733C47.7054 23.1874 47.5293 23.0438 47.3227 22.9625C47.1161 22.8812 46.8894 22.8662 46.6739 22.9195C46.4584 22.9728 46.2648 23.0918 46.12 23.26Z" fill="#D15187"/>
<path d="M42.18 33.43V27.21L39.42 30C39.3205 30.1004 39.2021 30.18 39.0717 30.2344C38.9412 30.2888 38.8013 30.3168 38.66 30.3168C38.5187 30.3168 38.3787 30.2888 38.2483 30.2344C38.1178 30.18 37.9995 30.1004 37.9 30L34 26.07C33.9005 25.9696 33.7821 25.8899 33.6517 25.8355C33.5212 25.7812 33.3813 25.7532 33.24 25.7532C33.0987 25.7532 32.9587 25.7812 32.8283 25.8355C32.6978 25.8899 32.5795 25.9696 32.48 26.07L24.11 34.51H41.11C41.2513 34.51 41.3913 34.482 41.5218 34.4276C41.6523 34.3732 41.7707 34.2935 41.8701 34.1931C41.9696 34.0926 42.0482 33.9735 42.1014 33.8425C42.1546 33.7116 42.1813 33.5713 42.18 33.43Z" fill="#A445BB"/>
</g>
<defs>
<filter id="filter0_d_18901_364" x="-3" y="0" width="58" height="58" filterUnits="userSpaceOnUse" color-interpolation-filters="sRGB">
<feFlood flood-opacity="0" result="BackgroundImageFix"/>
<feColorMatrix in="SourceAlpha" type="matrix" values="0 0 0 0 0 0 0 0 0 0 0 0 0 0 0 0 0 0 127 0" result="hardAlpha"/>
<feOffset dy="4"/>
<feGaussianBlur stdDeviation="2"/>
<feComposite in2="hardAlpha" operator="out"/>
<feColorMatrix type="matrix" values="0 0 0 0 0 0 0 0 0 0 0 0 0 0 0 0 0 0 0.25 0"/>
<feBlend mode="normal" in2="BackgroundImageFix" result="effect1_dropShadow_18901_364"/>
<feBlend mode="normal" in="SourceGraphic" in2="effect1_dropShadow_18901_364" result="shape"/>
</filter>
</defs>
</svg>
